<svg xmlns="http://www.w3.org/2000/svg" viewBox="0 0 1280 800" width="1280" height="800" role="img"><rect width="1280" height="800" fill="#050505"/><g transform="translate(640 400)"><rect x="-529" y="-225" width="158" height="76" rx="12" fill="rgba(16,185,129,0.14)" stroke="#10B981" stroke-width="2.5"/><path d="M -470 -187 l 13 14 l 26 -28" fill="none" stroke="#10B981" stroke-width="6" stroke-linecap="round" stroke-linejoin="round"/><rect x="-349" y="-225" width="158" height="76" rx="12" fill="rgba(16,185,129,0.14)" stroke="#10B981" stroke-width="2.5"/><path d="M -290 -187 l 13 14 l 26 -28" fill="none" stroke="#10B981" stroke-width="6" stroke-linecap="round" stroke-linejoin="round"/><rect x="-169" y="-225" width="158" height="76" rx="12" fill="rgba(16,185,129,0.14)" stroke="#10B981" stroke-width="2.5"/><path d="M -110 -187 l 13 14 l 26 -28" fill="none" stroke="#10B981" stroke-width="6" stroke-linecap="round" stroke-linejoin="round"/><rect x="11" y="-225" width="158" height="76" rx="12" fill="none" stroke="#242424" stroke-width="2.5"/><rect x="191" y="-225" width="158" height="76" rx="12" fill="rgba(16,185,129,0.14)" stroke="#10B981" stroke-width="2.5"/><path d="M 250 -187 l 13 14 l 26 -28" fill="none" stroke="#10B981" stroke-width="6" stroke-linecap="round" stroke-linejoin="round"/><rect x="371" y="-225" width="158" height="76" rx="12" fill="rgba(16,185,129,0.14)" stroke="#10B981" stroke-width="2.5"/><path d="M 430 -187 l 13 14 l 26 -28" fill="none" stroke="#10B981" stroke-width="6" stroke-linecap="round" stroke-linejoin="round"/><rect x="-529" y="-123" width="158" height="76" rx="12" fill="rgba(16,185,129,0.14)" stroke="#10B981" stroke-width="2.5"/><path d="M -470 -85 l 13 14 l 26 -28" fill="none" stroke="#10B981" stroke-width="6" stroke-linecap="round" stroke-linejoin="round"/><rect x="-349" y="-123" width="158" height="76" rx="12" fill="rgba(16,185,129,0.14)" stroke="#10B981" stroke-width="2.5"/><path d="M -290 -85 l 13 14 l 26 -28" fill="none" stroke="#10B981" stroke-width="6" stroke-linecap="round" stroke-linejoin="round"/><rect x="-169" y="-123" width="158" height="76" rx="12" fill="rgba(244,63,94,0.14)" stroke="#F43F5E" stroke-width="2.5"/><path d="M -106 -101 l 32 32 M -74 -101 l -32 32" fill="none" stroke="#F43F5E" stroke-width="6" stroke-linecap="round"/><rect x="11" y="-123" width="158" height="76" rx="12" fill="rgba(16,185,129,0.14)" stroke="#10B981" stroke-width="2.5"/><path d="M 70 -85 l 13 14 l 26 -28" fill="none" stroke="#10B981" stroke-width="6" stroke-linecap="round" stroke-linejoin="round"/><rect x="191" y="-123" width="158" height="76" rx="12" fill="rgba(16,185,129,0.14)" stroke="#10B981" stroke-width="2.5"/><path d="M 250 -85 l 13 14 l 26 -28" fill="none" stroke="#10B981" stroke-width="6" stroke-linecap="round" stroke-linejoin="round"/><rect x="371" y="-123" width="158" height="76" rx="12" fill="rgba(16,185,129,0.14)" stroke="#10B981" stroke-width="2.5"/><path d="M 430 -85 l 13 14 l 26 -28" fill="none" stroke="#10B981" stroke-width="6" stroke-linecap="round" stroke-linejoin="round"/><rect x="-529" y="-21" width="158" height="76" rx="12" fill="rgba(16,185,129,0.14)" stroke="#10B981" stroke-width="2.5"/><path d="M -470 17 l 13 14 l 26 -28" fill="none" stroke="#10B981" stroke-width="6" stroke-linecap="round" stroke-linejoin="round"/><rect x="-349" y="-21" width="158" height="76" rx="12" fill="rgba(16,185,129,0.14)" stroke="#10B981" stroke-width="2.5"/><path d="M -290 17 l 13 14 l 26 -28" fill="none" stroke="#10B981" stroke-width="6" stroke-linecap="round" stroke-linejoin="round"/><rect x="-169" y="-21" width="158" height="76" rx="12" fill="rgba(16,185,129,0.14)" stroke="#10B981" stroke-width="2.5"/><path d="M -110 17 l 13 14 l 26 -28" fill="none" stroke="#10B981" stroke-width="6" stroke-linecap="round" stroke-linejoin="round"/><rect x="11" y="-21" width="158" height="76" rx="12" fill="rgba(16,185,129,0.14)" stroke="#10B981" stroke-width="2.5"/><path d="M 70 17 l 13 14 l 26 -28" fill="none" stroke="#10B981" stroke-width="6" stroke-linecap="round" stroke-linejoin="round"/><rect x="191" y="-21" width="158" height="76" rx="12" fill="rgba(244,63,94,0.14)" stroke="#F43F5E" stroke-width="2.5"/><path d="M 254 1 l 32 32 M 286 1 l -32 32" fill="none" stroke="#F43F5E" stroke-width="6" stroke-linecap="round"/><rect x="371" y="-21" width="158" height="76" rx="12" fill="none" stroke="#242424" stroke-width="2.5"/><rect x="-529" y="81" width="158" height="76" rx="12" fill="rgba(16,185,129,0.14)" stroke="#10B981" stroke-width="2.5"/><path d="M -470 119 l 13 14 l 26 -28" fill="none" stroke="#10B981" stroke-width="6" stroke-linecap="round" stroke-linejoin="round"/><rect x="-349" y="81" width="158" height="76" rx="12" fill="rgba(16,185,129,0.14)" stroke="#10B981" stroke-width="2.5"/><path d="M -290 119 l 13 14 l 26 -28" fill="none" stroke="#10B981" stroke-width="6" stroke-linecap="round" stroke-linejoin="round"/><rect x="-169" y="81" width="158" height="76" rx="12" fill="none" stroke="#242424" stroke-width="2.5"/><rect x="11" y="81" width="158" height="76" rx="12" fill="none" stroke="#242424" stroke-width="2.5"/><rect x="191" y="81" width="158" height="76" rx="12" fill="none" stroke="#242424" stroke-width="2.5"/><rect x="371" y="81" width="158" height="76" rx="12" fill="none" stroke="#242424" stroke-width="2.5"/><rect x="-529" y="219" width="1058" height="14" rx="7" fill="#242424"/><rect x="-529" y="219" width="794" height="14" rx="7" fill="#10B981"/></g><text x="64" y="726" font-family="ui-monospace, SFMono-Regular, 'SF Mono', Menlo, Consolas, monospace" font-size="26" letter-spacing="2.5" fill="#8a8a8a">ANXVL TRACKER 24H</text></svg>