<svg class="sprite-iconos" aria-hidden="true" focusable="false" xmlns="http://www.w3.org/2000/svg"><defs><symbol id="i-marca" viewBox="0 0 24 24"><rect x="1.5" y="1.5" width="21" height="21" rx="6.5" fill="none" stroke="currentColor" stroke-width="2"/><path d="M7 8.5 12 15.5 17 8.5" fill="none" stroke="currentColor" stroke-width="2" stroke-linecap="round" stroke-linejoin="round"/></symbol><symbol id="i-aplicaciones" viewBox="0 0 16 16"><rect x="1.75" y="1.75" width="5" height="5" rx="1.4" fill="none" stroke="currentColor" stroke-width="1.5"/><rect x="9.25" y="1.75" width="5" height="5" rx="1.4" fill="none" stroke="currentColor" stroke-width="1.5"/><rect x="1.75" y="9.25" width="5" height="5" rx="1.4" fill="none" stroke="currentColor" stroke-width="1.5"/><rect x="9.25" y="9.25" width="5" height="5" rx="1.4" fill="none" stroke="currentColor" stroke-width="1.5"/></symbol><symbol id="i-herramientas" viewBox="0 0 16 16"><path d="M10.4 1.9a3.6 3.6 0 0 0-4.3 4.7L1.9 10.8a1.6 1.6 0 0 0 2.3 2.3l4.2-4.2a3.6 3.6 0 0 0 4.7-4.3l-2 2-1.8-.5-.5-1.8z" fill="none" stroke="currentColor" stroke-width="1.5" stroke-linejoin="round"/></symbol><symbol id="i-seguridad" viewBox="0 0 16 16"><path d="M8 1.5 2.75 3.7v4c0 3.2 2.1 5.7 5.25 6.8 3.15-1.1 5.25-3.6 5.25-6.8v-4z" fill="none" stroke="currentColor" stroke-width="1.5" stroke-linejoin="round"/><path d="M5.9 7.9 7.4 9.4l2.9-3" fill="none" stroke="currentColor" stroke-width="1.5" stroke-linecap="round" stroke-linejoin="round"/></symbol><symbol id="i-juegos" viewBox="0 0 16 16"><rect x="1.3" y="4.4" width="13.4" height="8.1" rx="3.4" fill="none" stroke="currentColor" stroke-width="1.5"/><path d="M4.1 7.2v2.6M2.8 8.5h2.6" stroke="currentColor" stroke-width="1.5" stroke-linecap="round"/><circle cx="11" cy="7.9" r="1" fill="currentColor"/><circle cx="12.5" cy="9.9" r="1" fill="currentColor"/></symbol><symbol id="i-flecha" viewBox="0 0 16 16"><path d="M3 8h10M9 4l4 4-4 4" fill="none" stroke="currentColor" stroke-width="1.7" stroke-linecap="round" stroke-linejoin="round"/></symbol><symbol id="i-arriba" viewBox="0 0 16 16"><path d="M8 13V3M4 7l4-4 4 4" fill="none" stroke="currentColor" stroke-width="1.7" stroke-linecap="round" stroke-linejoin="round"/></symbol><symbol id="i-buscar" viewBox="0 0 16 16"><circle cx="7" cy="7" r="4.6" fill="none" stroke="currentColor" stroke-width="1.6"/><path d="M10.5 10.5 14 14" fill="none" stroke="currentColor" stroke-width="1.6" stroke-linecap="round"/></symbol><symbol id="i-menu" viewBox="0 0 16 16"><path d="M2.5 5h11M2.5 8h11M2.5 11h11" fill="none" stroke="currentColor" stroke-width="1.6" stroke-linecap="round"/></symbol><symbol id="i-cerrar" viewBox="0 0 16 16"><path d="M4 4l8 8M12 4l-8 8" fill="none" stroke="currentColor" stroke-width="1.7" stroke-linecap="round"/></symbol><symbol id="i-github" viewBox="0 0 16 16"><path d="M8 .8a7.2 7.2 0 0 0-2.28 14c.36.07.49-.15.49-.34v-1.3c-2 .44-2.43-.87-2.43-.87-.33-.83-.8-1.06-.8-1.06-.66-.44.05-.44.05-.44.73.05 1.11.75 1.11.75.65 1.1 1.7.79 2.11.6.07-.47.25-.79.46-.97-1.6-.18-3.28-.8-3.28-3.55 0-.79.28-1.43.74-1.94-.07-.18-.32-.91.07-1.9 0 0 .61-.19 2 .74a6.9 6.9 0 0 1 3.64 0c1.39-.93 2-.74 2-.74.39.99.14 1.72.07 1.9.46.51.74 1.15.74 1.94 0 2.76-1.69 3.37-3.3 3.55.26.22.49.66.49 1.34v1.98c0 .19.13.42.49.34A7.2 7.2 0 0 0 8 .8z" fill="currentColor"/></symbol><symbol id="i-correo" viewBox="0 0 16 16"><rect x="1.5" y="3.3" width="13" height="9.4" rx="2" fill="none" stroke="currentColor" stroke-width="1.5"/><path d="m2.4 4.9 5.6 3.9 5.6-3.9" fill="none" stroke="currentColor" stroke-width="1.5" stroke-linecap="round" stroke-linejoin="round"/></symbol><symbol id="i-inicio" viewBox="0 0 16 16"><path d="M2.4 6.9 8 2.3l5.6 4.6v6.1a1 1 0 0 1-1 1h-9.2a1 1 0 0 1-1-1z" fill="none" stroke="currentColor" stroke-width="1.5" stroke-linejoin="round"/><path d="M6.3 14V9.2h3.4V14" fill="none" stroke="currentColor" stroke-width="1.5" stroke-linejoin="round"/></symbol><symbol id="i-proyectos" viewBox="0 0 16 16"><path d="M1.6 5.1a1.4 1.4 0 0 1 1.4-1.4h2.6l1.3 1.6h4.5a1.4 1.4 0 0 1 1.4 1.4v4.9a1.4 1.4 0 0 1-1.4 1.4H3a1.4 1.4 0 0 1-1.4-1.4z" fill="none" stroke="currentColor" stroke-width="1.5" stroke-linejoin="round"/></symbol><symbol id="i-persona" viewBox="0 0 16 16"><circle cx="8" cy="5.4" r="2.8" fill="none" stroke="currentColor" stroke-width="1.5"/><path d="M2.9 13.7a5.1 5.1 0 0 1 10.2 0" fill="none" stroke="currentColor" stroke-width="1.5" stroke-linecap="round"/></symbol><symbol id="i-sin-cuenta" viewBox="0 0 16 16"><circle cx="8" cy="8" r="6.2" fill="none" stroke="currentColor" stroke-width="1.5"/><path d="M3.6 3.6 12.4 12.4" fill="none" stroke="currentColor" stroke-width="1.5" stroke-linecap="round"/></symbol><symbol id="i-rayo" viewBox="0 0 16 16"><path d="M9.1 1.4 3.4 9h3.7l-.9 5.6L12.6 7H8.9z" fill="none" stroke="currentColor" stroke-width="1.5" stroke-linejoin="round"/></symbol><symbol id="i-candado" viewBox="0 0 16 16"><rect x="3.2" y="6.9" width="9.6" height="7" rx="1.8" fill="none" stroke="currentColor" stroke-width="1.5"/><path d="M5.6 6.9V5.1a2.4 2.4 0 0 1 4.8 0v1.8" fill="none" stroke="currentColor" stroke-width="1.5" stroke-linecap="round"/><circle cx="8" cy="10.3" r="1.1" fill="currentColor"/></symbol><symbol id="i-vacio" viewBox="0 0 16 16"><circle cx="7" cy="7" r="4.6" fill="none" stroke="currentColor" stroke-width="1.5"/><path d="M10.5 10.5 14 14M5.3 7h3.4" fill="none" stroke="currentColor" stroke-width="1.5" stroke-linecap="round"/></symbol></defs></svg>