<svg xmlns="http://www.w3.org/2000/svg" viewBox="0 0 100 100"><defs><radialGradient id="bg" cx="0.5" cy="0.5" r="0.55"><stop offset="0" stop-color="#2b1750"/><stop offset="1" stop-color="#150a26"/></radialGradient><radialGradient id="core" cx="0.5" cy="0.5" r="0.55"><stop offset="0" stop-color="#ffffff"/><stop offset="1" stop-color="#fdf3ff"/></radialGradient></defs><circle cx="50" cy="50" r="50" fill="url(#bg)"/><g><path d="M50 50 L50 10 A40 40 0 0 1 85 30 Z" fill="#ff5d8f"/><path d="M50 50 L85 30 A40 40 0 0 1 85 70 Z" fill="#ffd166"/><path d="M50 50 L85 70 A40 40 0 0 1 50 90 Z" fill="#6fe07a"/><path d="M50 50 L50 90 A40 40 0 0 1 15 70 Z" fill="#5dc8ff"/><path d="M50 50 L15 70 A40 40 0 0 1 15 30 Z" fill="#b07aff"/><path d="M50 50 L15 30 A40 40 0 0 1 50 10 Z" fill="#ff8a4d"/></g><circle cx="50" cy="50" r="17" fill="url(#core)"/></svg>