<svg xmlns="http://www.w3.org/2000/svg" viewBox="0 0 64 64"><defs><linearGradient id="badgeGrad" x1="0" y1="0" x2="1" y2="1"><stop offset="0" stop-color="#5C4FA0"/><stop offset="1" stop-color="#241C3D"/></linearGradient><linearGradient id="liquidGrad" x1="0" y1="0" x2="1" y2="1"><stop offset="0" stop-color="#A296DE"/><stop offset="1" stop-color="#2FD9C7"/></linearGradient></defs><rect x="0" y="0" width="64" height="64" rx="15" fill="url(#badgeGrad)"/><path d="M26.8,12 L26.8,26.6 L14.4,50.8 Q12.3,55.6 17.5,55.6 L46.5,55.6 Q51.7,55.6 49.6,50.8 L37.2,26.6 L37.2,12" fill="none" stroke="#F3F1FA" stroke-width="3" stroke-linejoin="round" stroke-linecap="round"/><path d="M20.7,37.6 L43.3,37.6 L49.6,50.8 Q51.7,55.6 46.5,55.6 L17.5,55.6 Q12.3,55.6 14.4,50.8 Z" fill="url(#liquidGrad)"/><line x1="24.5" y1="37.6" x2="39.5" y2="37.6" stroke="#F3F1FA" stroke-width="1.3" opacity="0.55"/><line x1="27.3" y1="12" x2="36.7" y2="12" stroke="#F3F1FA" stroke-width="3" stroke-linecap="round"/><line x1="31" y1="17" x2="27.5" y2="26" stroke="#ffffff" stroke-width="1" opacity="0.3" stroke-linecap="round"/></svg>