<svg xmlns="http://www.w3.org/2000/svg" viewBox="0 0 64 64"><defs><linearGradient id="g" x1="0" y1="0" x2="1" y2="1"><stop offset="0" stop-color="#6C60A8"/><stop offset="1" stop-color="#271F40"/></linearGradient><clipPath id="liquidClip"><path d="M27.60,11.60 L27.60,27.44 L27.60,27.44 L26.99,29.21 L26.17,31.00 L25.13,32.82 L23.87,34.68 L22.40,36.56 L20.71,38.48 L18.80,40.42 L16.68,42.40 L16.68,42.40 L16.77,43.44 L17.04,44.45 L17.48,45.40 L18.08,46.26 L18.82,47.00 L19.68,47.60 L20.63,48.04 L21.64,48.31 L22.68,48.40 L41.32,48.40 L42.36,48.31 L43.37,48.04 L44.32,47.60 L45.18,47.00 L45.92,46.26 L46.52,45.40 L46.96,44.45 L47.23,43.44 L47.32,42.40 L47.32,42.40 L45.20,40.42 L43.29,38.48 L41.60,36.56 L40.13,34.68 L38.87,32.82 L37.83,31.00 L37.01,29.21 L36.40,27.44 L36.40,11.60 Z"/></clipPath></defs><rect x="0" y="0" width="64" height="64" rx="15" fill="url(#g)"/><rect x="6" y="35" width="52" height="20" fill="#18C4B2" clip-path="url(#liquidClip)"/><path d="M25.80,9.80 L25.80,26.72 L25.80,26.72 L25.18,28.52 L24.33,30.44 L23.25,32.46 L21.94,34.59 L20.39,36.83 L18.60,39.18 L16.59,41.63 L14.34,44.20 L14.34,44.20 L14.43,45.24 L14.70,46.25 L15.14,47.20 L15.74,48.06 L16.48,48.80 L17.34,49.40 L18.29,49.84 L19.30,50.11 L20.34,50.20 L43.66,50.20 L44.70,50.11 L45.71,49.84 L46.66,49.40 L47.52,48.80 L48.26,48.06 L48.86,47.20 L49.30,46.25 L49.57,45.24 L49.66,44.20 L49.66,44.20 L47.41,41.63 L45.40,39.18 L43.61,36.83 L42.06,34.59 L40.75,32.46 L39.67,30.44 L38.82,28.52 L38.20,26.72 L38.20,9.80 Z" fill="none" stroke="#fff" stroke-width="3.6" stroke-linejoin="round" stroke-linecap="round"/><line x1="17" y1="35" x2="47" y2="35" stroke="#fff" stroke-width="1.8" opacity="0.55"/></svg>